<?xml version="1.0" encoding="utf-8"?>
<!-- Generator: Adobe Illustrator 21.1.0, SVG Export Plug-In . SVG Version: 6.00 Build 0)  -->
<svg version="1.1" id="Layer_1" xmlns="http://www.w3.org/2000/svg" xmlns:xlink="http://www.w3.org/1999/xlink" x="0px" y="0px"
	 viewBox="0 0 900 900" style="enable-background:new 0 0 900 900;" xml:space="preserve">
<style type="text/css">
	.st0{fill:url(#SVGID_1_);}
	.st1{fill:#222323;}
</style>
<linearGradient id="SVGID_1_" gradientUnits="userSpaceOnUse" x1="1004.4326" y1="428.4043" x2="-640.4113" y2="500.2664">
	<stop  offset="0" style="stop-color:#00CCE9"/>
	<stop  offset="8.999372e-02" style="stop-color:#0CA4ED"/>
	<stop  offset="0.2597" style="stop-color:#215EF5"/>
	<stop  offset="0.4016" style="stop-color:#302BFA"/>
	<stop  offset="0.5082" style="stop-color:#390CFE"/>
	<stop  offset="0.5674" style="stop-color:#3D00FF"/>
	<stop  offset="0.9944" style="stop-color:#005B97"/>
	<stop  offset="1" style="stop-color:#1241B5"/>
</linearGradient>
<path class="st0" d="M830,638.7c-11-15.2-22.2-30.3-33.6-45.3c-5.7-7.6-14.5-23.7-25.3-25.3c-7.2-1.1-13.5,4.2-18.8,8.9
	c-31.2,28-70.8,49.9-113.2,60.4c-47.6,11.8-100.7,8.4-143.2-14.2c-30.4-16.1-54.4-41.4-70.1-70c-15.6-28.7-23.1-60.6-24.5-92.6
	c-2.3-53,13.9-109.2,53.3-149.6c9-9.2,19.1-17.5,30.4-24.4c23.1-14,50.2-22.8,77.8-25.4c49.1-4.7,99.1,8.9,140.3,33.6
	c14.2,8.5,27.4,18.2,40.1,28.4c9.3,7.5,23.4,24.6,37.5,15.1c3.7-2.5,6.3-6.1,8.8-9.7c27.2-38.6,52.8-78.2,75.5-119.2
	c3.1-5.6,6.2-11.4,5.9-17.7c-0.5-12.5-13.1-23.6-22-32.1c-54.3-51.6-131.1-79.9-208.6-91.5c-76.5-11.5-154.1-7.1-231.2-5
	c-58.2,1.6-116.6,2.5-174.6,7.2c-26.5,2.1-55.1,5.3-69.4,28.7c-6.8,11.1-8.6,24.7-4.9,37c2.6,8.4,7.7,16.3,15.2,21.7
	c13.4,9.8,31.8,10.9,49,11.3c22.5,0.5,45.4,2,61,18.6c13.4,14.2,18.5,34.9,12.3,52.9c-8.7,25.3-37.3,43-66.5,44
	c-14,0.5-28.3-2.4-41.7,1.1c-26.8,6.8-39.4,38.5-28.6,61.8c10.8,23.3,39,37.1,66.8,38.8c21,1.3,42.3-3.3,63,0
	c26.2,4.2,49.5,22.4,56.1,45.8c6.5,23.4-5.5,50.5-29.1,61.6c-16.1,7.6-35.1,7.6-53.3,7.5c-51-0.4-102.1-1.8-153-1.6
	c-18,0.1-36.6,2.4-51.8,11.1c-21.5,12.3-32.9,37.6-27.1,60c2.9,11.4,9.9,21.8,19.6,29.5c27.5,21.7,67.2,17.4,100.8,16.2
	c34.1-1.3,68.2-4.4,102.3-3.7c19.8,0.4,39.9,2.1,58.2,9.1c18.3,6.9,34.6,19.7,41.1,36.7c7.5,19.6-1.2,39.1-18.1,51.8
	c-17.7,13.4-45.6,16.3-67.7,15.6c-24.2-0.8-48.3-5-72.5-3.4s-49.5,10.3-62.1,29.1c-6.2,9.3-8.8,20.4-8.1,31.3
	c0.8,10.7,4.8,21.3,12.1,29.7c13.6,15.8,36.7,22.5,58.7,24.3c25.8,2,52.2,1.1,78.1,1.6c27.7,0.5,55.4,1,83.1,1.4
	c41.7,0.6,83.3,1.1,125,1.4c73.5,0.5,147.8,0.1,218.7-19.4c22.6-6.2,44.5-14.2,65.3-24.4c37.7-18.5,71.4-44.3,95.1-76.7
	c9-12.2,10.9-21,2-33.7C853,670.7,841.6,654.6,830,638.7z"/>
<path class="st1" d="M703.5,552.8c0,2.3-1.5,5.3-4.5,9c-26.3,31.4-61.4,47-105,47c-44.7,0-80.9-15.3-108.7-45.8
	c-27.1-29.5-40.6-66.7-40.6-111.7c0-43.5,13.2-80.5,39.7-110.8c27.6-31.8,62.8-47.7,105.5-47.7c46.4,0,82.8,14.2,109.1,42.7
	c2.9,3.2,4.3,5.9,4.3,8.4c0,2.7-5,12.8-14.9,30.3c-10,17.5-16.2,27.3-18.8,29.4c-1.1,1.1-2.6,1.7-4.3,1.7c-0.7,0-4.3-2.9-10.7-8.6
	c-7.7-6.9-15.3-12.2-22.8-16.1c-11.3-5.7-23.1-8.6-35.2-8.6c-21.1,0-37.9,7.9-50.5,23.6c-11.6,14.6-17.4,32.6-17.4,54.1
	c0,21.8,5.8,40,17.4,54.8c12.6,16,29.4,24.1,50.5,24.1c12.5,0,24.3-2.7,35.4-8.2c7.3-3.6,14.7-8.6,22.3-15c6.3-5.4,9.8-8.2,10.5-8.2
	c1.4,0,2.9,0.8,4.3,2.4c2.3,2.6,8.5,11.5,18.7,26.9C698.3,542.5,703.5,551.2,703.5,552.8z"/>
</svg>
